<?xml version="1.0" encoding="utf-8"?>
<!-- Generator: Adobe Illustrator 20.1.0, SVG Export Plug-In . SVG Version: 6.00 Build 0)  -->
<svg version="1.1" id="Layer_1" xmlns="http://www.w3.org/2000/svg" xmlns:xlink="http://www.w3.org/1999/xlink" x="0px" y="0px"
	 viewBox="0 0 40 40" style="enable-background:new 0 0 40 40;" xml:space="preserve">
<g>
	<path d="M20,12.4c-4.2,0-7.6,3.4-7.6,7.6s3.4,7.6,7.6,7.6s7.6-3.4,7.6-7.6S24.2,12.4,20,12.4z M20,24.9c-2.7,0-4.9-2.2-4.9-4.9
		s2.2-4.9,4.9-4.9c2.7,0,4.9,2.2,4.9,4.9S22.7,24.9,20,24.9z"/>
	<circle cx="27.9" cy="12.1" r="1.8"/>
	<path d="M34.7,13.9c-0.1-1.6-0.3-2.6-0.7-3.6c-0.4-1-0.9-1.8-1.7-2.6c-0.8-0.8-1.6-1.3-2.6-1.7c-0.9-0.4-2-0.6-3.6-0.7
		C24.5,5.2,24,5.2,20,5.2s-4.5,0-6.1,0.1c-1.6,0.1-2.6,0.3-3.6,0.7c-1,0.4-1.8,0.9-2.6,1.7C6.9,8.5,6.4,9.4,6,10.3
		c-0.4,0.9-0.6,2-0.7,3.6C5.2,15.5,5.2,16,5.2,20s0,4.5,0.1,6.1c0.1,1.6,0.3,2.6,0.7,3.6c0.4,1,0.9,1.8,1.7,2.6
		c0.8,0.8,1.6,1.3,2.6,1.7c0.9,0.4,2,0.6,3.6,0.7c1.6,0.1,2.1,0.1,6.1,0.1s4.5,0,6.1-0.1c1.6-0.1,2.6-0.3,3.6-0.7
		c1-0.4,1.8-0.9,2.6-1.7c0.8-0.8,1.3-1.6,1.7-2.6c0.4-0.9,0.6-2,0.7-3.6c0.1-1.6,0.1-2.1,0.1-6.1S34.8,15.5,34.7,13.9z M32,26
		c-0.1,1.4-0.3,2.2-0.5,2.7c-0.3,0.7-0.6,1.2-1.1,1.7c-0.5,0.5-1,0.8-1.7,1.1C28.2,31.7,27.4,32,26,32c-1.6,0.1-2,0.1-6,0.1
		c-3.9,0-4.4,0-6-0.1c-1.4-0.1-2.2-0.3-2.7-0.5c-0.7-0.3-1.2-0.6-1.7-1.1c-0.5-0.5-0.8-1-1.1-1.7C8.3,28.2,8,27.4,8,26
		c-0.1-1.6-0.1-2-0.1-6s0-4.4,0.1-6c0.1-1.4,0.3-2.2,0.5-2.7c0.3-0.7,0.6-1.2,1.1-1.7c0.5-0.5,1-0.8,1.7-1.1C11.8,8.3,12.6,8,14,8
		c1.6-0.1,2-0.1,6-0.1c3.9,0,4.4,0,6,0.1c1.4,0.1,2.2,0.3,2.7,0.5c0.7,0.3,1.2,0.6,1.7,1.1c0.5,0.5,0.8,1,1.1,1.7
		c0.2,0.5,0.4,1.3,0.5,2.7c0.1,1.6,0.1,2,0.1,6S32.1,24.4,32,26z"/>
</g>
</svg>
