<?xml version="1.0" encoding="utf-8"?>
<!-- Generator: Adobe Illustrator 20.1.0, SVG Export Plug-In . SVG Version: 6.00 Build 0)  -->
<svg version="1.1" id="Layer_1" xmlns="http://www.w3.org/2000/svg" xmlns:xlink="http://www.w3.org/1999/xlink" x="0px" y="0px"
	 viewBox="0 0 40 40" style="enable-background:new 0 0 40 40;" xml:space="preserve">
<path d="M31.8,13.9c0.4,8.6-6,18.1-17.3,18.1c-3.4,0-6.6-1-9.3-2.7c3.2,0.4,6.5-0.5,9-2.5c-2.7,0-4.9-1.8-5.7-4.2
	c1,0.2,1.9,0.1,2.8-0.1c-2.9-0.6-5-3.2-4.9-6.1c0.8,0.5,1.8,0.7,2.8,0.8C6.4,15.4,5.6,11.8,7.2,9c3,3.7,7.5,6.1,12.6,6.4
	c-0.9-3.8,2-7.5,5.9-7.5c1.8,0,3.3,0.7,4.4,1.9c1.4-0.3,2.7-0.8,3.9-1.5c-0.5,1.4-1.4,2.6-2.7,3.4c1.2-0.1,2.4-0.5,3.5-1
	C34,12,33,13.1,31.8,13.9z"/>
</svg>
