<svg xmlns="http://www.w3.org/2000/svg" viewBox="0 0 50 48.8">
  <title>GitHub Logo</title>
  <path d="M25 1.1C11.8 1.1 1.2 11.8 1.2 25c0 10.5 6.8 19.5 16.3 22.6 1.2.2 1.6-.5 1.6-1.1v-4.1c-6.6 1.4-8-3.2-8-3.2-1.1-2.8-2.6-3.5-2.6-3.5-2.2-1.5.2-1.4.2-1.4 2.4.2 3.7 2.5 3.7 2.5 2.1 3.6 5.6 2.6 6.9 2 .2-1.5.8-2.6 1.5-3.2C15.5 35 9.9 33 9.9 23.8c0-2.6.9-4.7 2.5-6.4-.2-.6-1.1-3 .2-6.3 0 0 2-.6 6.6 2.4 1.9-.5 3.9-.8 6-.8 2 0 4.1.3 6 .8 4.6-3.1 6.5-2.4 6.5-2.4 1.3 3.3.5 5.7.2 6.3 1.5 1.7 2.5 3.8 2.5 6.4 0 9.2-5.6 11.2-10.9 11.8.9.7 1.6 2.2 1.6 4.4v6.5c0 .6.4 1.4 1.6 1.1C42 44.4 48.8 35.5 48.8 25 48.8 11.8 38.2 1.1 25 1.1z" />
</svg>
